<?xml version="1.0" encoding="utf-8"?>
<!-- Generator: Adobe Illustrator 25.2.3, SVG Export Plug-In . SVG Version: 6.00 Build 0)  -->
<svg version="1.1" id="Calque_1" xmlns="http://www.w3.org/2000/svg" xmlns:xlink="http://www.w3.org/1999/xlink" x="0px" y="0px"
	 viewBox="0 0 462.6 234.2" style="enable-background:new 0 0 462.6 234.2;" xml:space="preserve">
<style type="text/css">
	.st0{fill:#D60B52;}
</style>
<path class="st0" d="M21,208.8c3.8-1.3,6.6-2.6,9.5-3.2c2.5-0.5,4.2-1.7,5.2-4c0.2-0.5,0.5-1,0.9-1.6c5-1.4,10.3-0.4,15.9-1.4
	c-1.4-1.4-3-1-4.3-1.3c-1.9-0.4-3.8-0.7-5.6-1.2c-0.9-0.2-1.7-0.8-3.1-1.6c1-0.6,1.5-1.2,2.1-1.2c8.2-0.4,16.4-0.9,24.7-1.2
	c3-0.1,6.1,0.4,9.2,0.3c2.5,0,4.9-0.4,7.4-0.6c1.9-0.1,3.8-0.3,5.7-0.2c7.8,0.4,15.7,0.4,23.4-0.9c0.6-0.1,1.1-0.3,1.7-0.2
	c10,1.1,19.9-0.9,29.8-1.3c3.4-0.1,6.9-0.5,10.3-0.7c5.9-0.4,12-0.2,17.7-1.4c4.9-1,9.8-0.7,14.7-1.1c4.3-0.3,8.6-0.9,13.5-1.4
	c-3.1-1.5-5.7-1.6-8.4-1.6c-9.2-0.1-18.4-0.1-27.6-0.1c-5.5,0-11.1,0.3-16.6,0.4c-0.3,0-0.7-0.3-1.1-0.5c0.5-1.7,1.3-3.4,1.4-5.2
	c0.2-3.5-1.7-5.4-5.2-5.5c-2.5-0.1-5,0-7.5,0.3c-12.8,1.4-25.6,1.4-38.5,1.6c-14.9,0.3-29.9,0.2-44.8,0.3c-2.6,0-5.3,0.1-7.7-1.3
	c0.2-1.3,1.3-1.4,2.2-1.4c5-0.2,9.9-0.2,14.9-0.5c3.4-0.1,6.9-0.5,10.3-0.7c1.7-0.1,3.4-0.3,5.1-0.3c8-0.2,16-0.2,24-0.7
	c8-0.4,16-1.4,24-2c10.5-0.8,21-1.3,31.5-2.1c3.4-0.3,6.8-1,10.2-1.6c-4.5-1.9-9-1.9-13.5-0.2c-0.7,0.2-1.5,0.1-2.2,0.1
	c-2.1,0.1-4.2,0-6.2,0.3c-3.6,0.4-7.1,1.5-10.8,0.6c-0.7-0.2-1.6-0.1-2.3,0c-7.5,1.7-15.2,0.8-22.7,1.6c-4.2,0.4-8.3,1.3-12.6,0.6
	c-3.3,1.8-6.7,0.3-10,0.1c-4.3-0.3-8.8-0.8-13,1.1c-0.6,0.3-1.6,0.3-2.2,0.1c-4.5-1.8-9-0.7-13.6-0.1c-2.8,0.4-5.7,0.3-8.5,0.3
	c-0.6,0-1.3-0.6-1.8-1c-1.5-1.4-3.3-1.8-5.3-1.6c-2.8,0.3-5.7,0.5-8.5,0.7c-0.2-0.3-0.6-0.6-0.6-0.9c0.4-4.2,0.4-4.2-3.3-5.8
	c-0.7-0.3-1.4-0.6-2.1-0.9c-0.5-0.2-1-0.4-2.3-0.8c2.7-0.7,4.7-1.3,6.8-1.9c0-1.6,0-2.9,0-4.2c-0.1-1.4,0.3-2.7,1.5-3.6
	c2.2-1.5,2.2-3.9,2.4-6.1c1.8-1.4,3.8-1,5.7-1.1c3.1-0.1,6.1-0.5,9.1-1.1c3.3-0.7,6.8-0.7,10.3-0.9c3.6-0.2,7.3-0.1,10.9-0.2
	c10.9-0.4,21.8-0.7,32.7-1.3c5.9-0.3,11.8-0.9,17.7-1.2c9.9-0.5,19.9-1.4,29.8-2.1c0.9-0.1,1.8-0.2,2.9-1c-0.7-0.2-1.5-0.6-2.2-0.6
	c-7.1,0.4-14.2,0.6-21.2,1.2c-13.9,1.3-27.9,2-41.9,2.3c-12.3,0.3-24.5,0.3-36.8,0.5c-3.7,0-7.2-0.5-10.4-1.9
	c-1.1-2.4,2-2.7,1.9-4.5c-2.3-1-2.3-1-4,1c-0.4-0.2-1-0.2-1.4-0.5c-1.9-1.9-4.1-2.6-6.8-2.4c-2.3,0.1-4.6,0-6.9-0.7
	c2.9-0.1,5.8-0.1,8.7-0.3c1.7-0.1,3.5-0.1,5.1-0.5c2.6-0.6,3.6-2.3,3.1-5.1c-0.3-1.7-0.6-3.4-0.9-5.3c-1.3-0.2-2.6-0.5-3.8-0.6
	c-8-0.4-16.1-0.7-24.1-1.3c-4.2-0.3-8.4-0.8-12.3-3.2c1.4-3.3,0.7-7.1,1.9-10.6c0.3-0.7,0.1-1.5,0.4-2.2c0.3-0.9,0.8-1.7,1.2-2.6
	c0.5-1.1,0.5-2.2-0.1-3.3C3,92,2.7,91.2,2.1,90c1.3-0.2,2.1-0.4,3-0.5c0.7-0.1,1.5-0.2,2.6-0.3c-0.6-1-1.2-1.8-1.5-2.6
	c-1-2.7,0.2-4.7,3-4.9c2.9-0.2,5.7-0.1,8.6-0.1c0.9,0,1.9,0,3.6,0c-3.1-2.4-6.3-1.7-8.9-2.8c-1.5-2.4-2.9-4.8-4.5-7.4
	C8.4,69.5,9,67.1,9.7,64c0.9-1.2,4.3-0.5,4.7-4c-1-1.2-2.4-2.8-3.8-4.5c2.6-0.6,5.2-1.4,7.9-1.6c2.8-0.2,5.7,0.3,8.6,0.5
	c2.9,0.1,5.7,0.2,8.6,0.2c5.2,0.1,10.3,0.2,15.5,0.3c1.3,0,2.7,0,3.5-1.8c-7.1-0.7-14.2,0.6-21-1.9c-0.5-0.2-0.8-0.7-1.2-1.1
	c0.2-1.5,1.3-1.4,2.1-1.5c2.2-0.2,4.5-0.2,6.6-0.3c0.1-0.5,0.2-0.7,0.1-0.8c-0.1-0.2-0.2-0.4-0.4-0.4c-3.4-0.5-6.8-0.9-10.2-1.4
	c-0.4-3-2.8-3.7-5.2-4.6c6.9,0.7,13.4,0.4,19.8-0.4c-3.1-1.3-6.4-1.9-9.9-2.1c-2.1-0.1-4.2-0.5-6.2-0.9c-2.4-0.6-4.8-1.4-6.2-4.2
	c0.8-0.4,1.7-1.2,2.4-1c3.8,0.9,7.5-0.6,11.3,0.2c3.5,0.8,7.2,0.8,10.9,1.1c3.8,0.3,7.6,0.5,11.4,0.7c1.3,0.1,2.5-0.2,4.4-0.4
	c-2.6-3.2-6.1-0.3-8.5-2.5c-2.2-2.1-5.6,0-8.4-1.3c0.8-0.4,1.5-0.8,2.4-1.4c-5.1-0.9-10-1.8-14.8-2.5c-3.1-0.5-5.9-1.6-8.2-4.1
	c1-0.5,1.9-1,2.8-1.4c-0.2-3.7-4-3.6-6.5-6.1c3.4,0.2,6,0.3,8.8,0.4c0-1.3-0.1-2.4,0-3.5c0.1-1.1,0.4-2.2,0.6-3.7c1.2,0,2.5,0,3.8,0
	C41,8.1,46.9,8.1,52.9,7.9c1.3,0,2.7-0.5,3.7-1.2c3.5-2.4,7.2-3.4,11.4-2.1c0.5,0.2,1.1-0.1,1.7-0.2c0.2,0,0.3-0.2,0.5-0.3
	c-0.2-1.3-1.2-1.3-2.1-1c-2.4,0.8-4.8,0.8-7.4-0.6c0.6-0.6,0.9-1.2,1.3-1.3c5.6-1.2,11.2-1.4,17-0.8c2.2,0.2,4.6-0.2,6.9-0.3
	c5.5-0.1,11.1-0.2,16.7-0.1c10.9,0.1,21.8,0.3,32.7,0.7C145.7,1,156.4,1.5,167.2,2c3.8,0.2,7.6,0.8,11.4,1.2
	c0.6,0.1,1.1,0.1,1.7,0.2c9,0.6,17.9,1.2,26.9,1.8c8.6,0.6,17.1,1.4,25.7,2.4c5.7,0.7,11.4,1,17.2,1.5c3.1,0.3,3.1,0.2,5.7,3.1
	c0.5,0.1,1.1,0.2,1.7,0.2c3.4-0.1,6.8,0,10.2,0.9c2.9,0.8,6,0.9,9.1,1.2c5.1,0.6,10.3,1.1,15.4,1.6c0.8,0.1,1.6-0.1,2.3,0.2
	c3.3,1.2,6.8,0.9,10.1,1.5c7,1.2,14.1,1.2,21.1,1.9c1.7,0.2,3.4,0.3,5.1,0.7c4.3,0.9,8.6,1.3,12.9,1.5c7.2,0.4,14.4,1.2,21.5,3.4
	c5.1,1.6,10.2,3.1,15.6,3.5c6.9,0.5,7.4,0.7,14,5.4c2.1,1.5,4.3,2.4,6.8,2.8c2.7,0.4,5.3,0.6,8,1.2c2.4,0.5,4.8,0.6,6.8,2.6
	c1.2,1.2,3.5,1.3,5.3,2c3.4,1.4,6.6,3.1,10.3,3.3c1,0.1,2,1,3.1,1.4c1.2,0.6,2.4,1.2,3.6,1.5c1.7,0.4,3.3,0.7,4.4,2.3
	c0.6,0.8,2,1.1,3.1,1.3c2.6,0.5,5.3,0.8,8,1.1c1.8,0.2,3.3,0.7,5.1,2.2c-1.7,0.5-2.9,1-4.1,1.1c-5.2,0.2-10.3,0.3-15.5,0.4
	c-1.9,0-3.8-0.1-5.7,0c-1.4,0-2.6,0.6-3.2,2c-0.8,1.7,0.9,2.3,1.6,3.3c-1.1,1.4-2.9,2.6-1.1,4.9c0.6,0.8,0.4,2.2,0.7,3.5
	c1.3,0.5,2.7,1.1,4.7,1.8c-1.8,0.4-3.1,0.5-4.2,1c-3.5,1.4-4.4,4.9-2.1,7.9c1.5,1.9,3.3,3.2,5.8,3.2c2.3,0,4.6,0.2,7.1,0.3
	c0.4,0.5,1,1.1,1.3,1.7c1.1,2.4,3,3.4,5.5,3.6c2.3,0.2,4.6,0.3,6.9,0.5c1.9,0.1,3.9-0.2,5.8,1.5c-1.2,0.5-2.1,1-3.2,1.2
	c-1.3,0.2-2.7,0.1-4-0.1c-3.1-0.5-5.6,0.5-7.7,3c0.8,2.5,2.9,3.7,5.2,4.7c-0.5,1.2-1,2.3-1.6,3.7c1.8,0.8,3.5,1.5,5.3,2.4
	c-1.2,1.4-2.3,2.7-3.3,3.9c-2.8,0-5.4,0-8.1,0c-1.7,0-3.5,0-5.1,0.3c-2.6,0.4-3.3,2.4-1.9,4.7c1,1.7,2.5,2.9,4.6,3
	c1.7,0.1,3.5,0.1,5.2,0.3c1.9,0.2,3.7,0.5,5.6,0.8c0.1,1.5-0.9,1.1-1.4,1.4c-0.8,0.4-1.7,0.8-2.4,1.4c-0.5,0.5-0.6,1.4-1.1,1.9
	c-0.5,0.5-1.3,1.1-1.9,1.1c-3.2,0.1-5.4,1.6-6.6,4.5c-1.7,0.4-3.2,0.8-4.7,1.1c-0.7,0.2-1.7,0.6-2.2,0.3c-4.7-2.6-9.4,0.2-14.1-0.2
	c-4.6-0.5-5.3,0.6-5.9,5.8c-13.9,1-27.8-1.7-41.6-0.5c-0.4,1.3,0.4,1.5,1.2,1.7c1.8,0.5,3.8,0.2,5.5,1.9c-0.8,0.1-1.4,0.4-1.9,0.3
	c-2.7-0.7-5.2-0.5-7.9,0.5c-1.8,0.7-3.8,1.2-5.6,1.1c-7.9-0.6-15.5,2.2-23.4,1.7c-1.4-0.1-2.9,0.6-4.7,0.9c2.4,3.3,6.2-0.1,8.4,2.4
	c-2.3,2.9-4.6,4.1-7.4,4.2c-2.2,0-4.4,0-7.1,0.1c0.5,1,0.6,1.7,1,1.8c1.3,0.4,2.6,0.5,3.9,0.9c0.1,0,0,0.9,0,1.5
	c1.4,0.1,2.9,0.3,4.4,0.2c0.7,0,1.8-0.2,2-0.7c0.7-1.6,2-1.5,3.3-1.4c0.7,0.1,1.6,0,2.3-0.2c1.8-0.6,3.3-0.3,4.8,1
	c0.8,0.7,2,0.8,3.8,1.4c-1.2,0.4-1.8,0.7-2.4,0.7c-3.8,0.2-7.7,0.4-11.5,0.4c-8.3-0.1-16.4,1-24.6,2c-0.9,0.1-2.4,0.3-2.6,0.8
	c-1.3,2.7-3.5,1.7-5.4,1.6c-0.8,0-1.5-0.1-2.3-0.3c-1.9-0.3-3.8-1-5.6-1c-3.4,0-6.9,0.3-10.4,0.5c0.7,1.9,2.2,1.5,3.4,1.6
	c5.7,0.6,11.4,1.1,17.1,1.7c0.6,0.1,1.1,0.3,1.9,0.5c-2.5,1.8-5.3,1.4-7.9,1.6c-2.3,0.2-4.6-0.2-6.9-0.3c-2.5-0.2-5-0.7-7.4-0.5
	c-6.3,0.3-12.5-1.2-18.7-1.6c-6.3-0.4-12.5-0.8-18.8,0.3c-7.7,1.3-15.6,1.5-23.4,1.2c-5.3-0.2-10.7,0.3-16.1,0.5
	c-0.7,0-1.4,0.3-3.4,0.7c5.6,0.3,9.9,0.7,14.2,0.7c6.5,0,13,0.1,19.4,1c0.2,0,0.4,0,0.6,0c7.1-1.2,14,1,21.1,1.3
	c0.8,0,1.5,0.2,2.3,0.2c8.4,0,16.8,1.1,25.2,1.8c1.4,0.1,1.4,0.1,4.4-1.2c-0.9-0.4-1.6-0.8-2.5-1.2c3.1-2,5.6-0.2,9.3-0.2
	c-1.7,0.7-2.4,1-3,1.3c0.2,0.3,0.3,0.7,0.5,0.7c2.9,0.2,5.7,0.3,8.9,0.4c-1.7,0.3-3,0.5-4.4,0.7c0,0.2,0,0.4,0,0.7
	c1,0.2,2,0.4,3,0.7c0.9,0.3,1.7,0.7,2.9,1.2c-0.7,0.6-1.1,0.9-1.5,1.2c2.5,2,5,2.8,8,2.8c7.3-0.1,14.5-0.1,21.8-0.1
	c7.1,0,14.1,0,21.1-0.4c-4.2,0.6-8.4,1.2-12.6,1.8c-2.8,0.4-5.6,0.9-8.5,0.5c-2.6-0.4-5.3,0.4-8,0.5c-6.7,0.2-13.4,0.4-20.1,0.5
	c-2.1,0-4.1,0.3-7.1,1.4c1.7,0.5,2.3,0.8,2.9,0.8c3.8-0.1,7.6,0.7,11.4-0.1c1.1-0.2,2.3-0.1,3.4,0.1c6.7,1,13.4,0.1,20,0.1
	c4.4,0,8.8,0.5,13.2,0.7c1.7,0.1,3.4,0.3,5.1,0.2c2.1-0.1,3.9,0.5,5.3,1.8c1.7,1.5,3.3,3.3,2.9,5.9c-5.4,2.7-11.3,3.1-17.1,3.5
	c-5.3,0.4-10.7,0.5-16.1,0.8c-1.3,0.1-2.7,0.2-4,0c-9.3-1.8-18.7-0.3-28-0.3c-3.7,1.3-7.4,1.4-11.1,0.5c-0.2,0-0.4,0-0.6,0.1
	c-12,1.3-24,1.1-36,2.2c-4.4,0.4-8.7,1.3-13,1.8c-7.2,0.8-14.5,1.4-21.7,2c-0.8,0.1-1.5,0.1-2.3,0.1c-10.4-0.6-20.5,1.5-30.8,2
	c-0.6,0-1.1,0.2-1.7,0.2c-10,0.2-19.8,1.6-29.7,2.3c-3.2,0.2-6.5,0.6-9.7,1c-1.1,0.1-2.3,0.4-3.4,0.3c-11-0.7-21.6,2.3-32.5,2.7
	c-4.5,0.2-9.1,1.3-13.7,0.8c-3.6-0.4-7.2-0.4-10.9-0.2c-1.9,0.1-3.8,0.3-5.7,0.5c-1.1,0.1-2.3,0.3-3.4,0.2c-9-0.8-18,0.1-27,0.3
	c-5.6,0.1-11.1,0.1-16.7,0.2c-2.2,0-4.1-0.4-6-1.6C25.3,211,23.5,210.1,21,208.8z M175.8,162.3c8.7,1.3,17.3,0.1,25.9-1.1
	c0.2,0,0.4-0.6,0.6-1.1c-3.9-1.5-7.5,0.8-11.2,0.7C185.9,160.7,180.8,161.8,175.8,162.3z M207,160c2.6,0.5,5.4,1.4,8.2,0
	C212.4,160,209.7,160,207,160z M67,33.7c2.6,1.2,5,0.6,8.1,0C72,33.3,69.6,32.4,67,33.7z M312.9,153.1c1.3,0.8,2.6,1.9,3.6-0.1
	c-0.5-0.2-1.1-0.5-1.6-0.5C314.3,152.5,313.6,152.9,312.9,153.1z M80.5,33.7c-0.3-0.1-0.6-0.2-0.9-0.2c-0.1,0-0.1,0.2-0.2,0.3
	c0.3,0.1,0.6,0.2,0.9,0.2C80.3,34,80.4,33.8,80.5,33.7z M334.5,149.9l0,0.4l0.4-0.2L334.5,149.9z M180,226.2
	c2.1,0.6,4.6,0.3,6.8,0.5c2.4,0.3,4.4,1.8,7.1,1.8c9.8,0.1,19.5,0.5,29.3,1.1c16.8,0.9,33.6,2,50.4,3.1c6.7,0.4,13.4,1,20,1.5
	c1.3,0.1,2.8,0.3,3.3-1.7c-1.7-2.6-3.8-5-6.5-7.1c-4.2,1.7-8.6,1.3-13,0.9c-2.3-0.2-3.8-1.2-4.5-3.4c1-0.3,2-0.6,3-0.9
	c-1.8-0.9-3.7-1.1-5.5-1.2c-3.4-0.2-6.9-0.3-10.3-0.4c-12.6-0.6-25.2-1.3-37.9-1.8c-2.2-0.1-4.5-0.4-6.3,1.8
	c-0.6,0.8-2.5,0.8-3.8,0.7c-9.8-0.2-19.5-0.4-29.3-0.6c-2.7-0.1-5.4-0.1-8,0c-1.1,0-2.2,0.5-2.3,2.4
	C174.9,223.9,177.4,225.4,180,226.2z M182.6,208.8c0.6,0.1,1.1,0.3,1.7,0.3c8.8,0,17.6,0,26.4,0.1c3.2,0,6.5,0.2,9.7,0.5
	c7.6,0.8,15.2,1.9,22.8,1.9c3.4,0,6.9,0.2,10.3,0.5c7.6,0.5,15.3,1.1,22.9,1.8c5.7,0.5,11.5-0.1,17.1,1.3c1.5,0.4,3.3,0.4,4.9-0.5
	c-0.5-0.3-0.8-0.7-1.1-0.7c-8.1-1.3-16.2-2.8-24.4-3.2c-6.7-0.3-13.3-1.2-20-1.5c-9-0.4-18-0.7-26.9-0.9
	c-11.3-0.2-22.5-0.3-33.8-0.4c-3.2,0-6.4,0.1-9.7,0.2C182.7,208.3,182.6,208.6,182.6,208.8z M246.1,217.2c4.2,0.1,8.3,0.1,12.5,0.9
	c2,0.4,4.1,0.6,6.5-0.1c-0.7-0.5-1.1-0.9-1.6-1c-9.2-1.1-18.5-1.5-27.9-1.4C239.1,216.2,242.5,217.1,246.1,217.2z M263,165.9
	c-3.3,0-6.6,0-9.9,0c0,0.1,0,0.2,0,0.3c3.3,0.2,6.6,0.4,9.9,0.7C263,166.5,263,166.2,263,165.9z M277.4,166.8
	c-2.1,0.1-4.3,0.2-6.4,0.3c0,0.1,0,0.3,0,0.4c2.2,0,4.4,0,6.6,0C277.5,167.3,277.4,167,277.4,166.8z M41.7,28.9
	c-2-0.1-3.6-0.2-5.2-0.2C40.1,30.4,40.1,30.4,41.7,28.9z M141.3,182.8c-1.9,0.1-3.7,0.2-5.6,0.3c0,0.2,0,0.3,0,0.5
	c1.9,0,3.8,0,5.7,0C141.3,183.3,141.3,183.1,141.3,182.8z M286.7,168.2c-0.9,0-1.8,0-2.7,0c-0.9-0.1-1.7-0.2-2.6-0.3
	c0,0.2,0,0.4,0,0.6c1.8,0,3.5,0,5.3,0C286.7,168.3,286.7,168.3,286.7,168.2z M263,10.5c-1.4,0-2.9,0-4.3,0c0,0.2,0,0.3,0,0.5
	c1.4,0.1,2.9,0.3,4.3,0.4C262.9,11.1,262.9,10.8,263,10.5z M273,217.6c-1.3-0.1-2.4-0.1-3.4-0.2C271.6,219,271.6,219,273,217.6z
	 M310.7,15.3c-0.7,0-1.4,0-2.1,0c0,0.1,0,0.3,0,0.4c0.7,0,1.4-0.1,2.1-0.1C310.8,15.4,310.7,15.3,310.7,15.3z M344.6,150.5
	c-0.4,0.3-0.8,0.6-1.2,0.8c0.2,0.3,0.4,0.8,0.6,0.7c0.4,0,0.8-0.3,1.2-0.5C345,151,344.8,150.7,344.6,150.5z M345.3,18.6
	c-0.2,0-0.4,0-0.6,0c0.2,0.1,0.3,0.3,0.5,0.4c0.2,0,0.4-0.1,0.5-0.1C345.7,18.8,345.5,18.7,345.3,18.6z M274.3,11.8
	c-0.3-0.1-0.6-0.2-1-0.2c-0.1,0-0.3,0.1-0.5,0.2c0.2,0.1,0.5,0.3,0.7,0.4C273.8,12,274,11.9,274.3,11.8z M357.5,155.6
	c-0.1,0-0.1,0.5-0.2,0.7c0.3,0,0.6,0,0.9-0.1c0.1,0,0.1-0.3,0.2-0.4C358.2,155.7,357.8,155.6,357.5,155.6z M20.4,39.6
	c0.2,0.1,0.4,0.3,0.5,0.2c0.2-0.1,0.2-0.3,0.3-0.5c-0.2,0-0.4,0-0.6,0C20.6,39.4,20.5,39.5,20.4,39.6z M298.3,13.8
	c-0.6,0-1.2-0.1-1.8-0.1c0,0.2,0,0.4,0,0.5c0.6,0,1.2,0,1.8,0C298.3,14.1,298.3,14,298.3,13.8z M329.7,17.8c0.1,0.1,0.3,0.1,0.5,0.1
	c0-0.2-0.1-0.4-0.1-0.6c-0.2,0-0.3,0.1-0.5,0.1C329.7,17.6,329.7,17.8,329.7,17.8z"/>
</svg>
