<?xml version="1.0" encoding="utf-8"?>
<!-- Generator: Adobe Illustrator 26.5.0, SVG Export Plug-In . SVG Version: 6.00 Build 0)  -->
<svg version="1.1" id="Calque_1" xmlns="http://www.w3.org/2000/svg" xmlns:xlink="http://www.w3.org/1999/xlink" x="0px" y="0px"
	 viewBox="0 0 512 72.79" style="enable-background:new 0 0 512 72.79;" xml:space="preserve">
<style type="text/css">
	.st0{fill:#FFFFFF;}
</style>
<g>
	<g>
		<path class="st0" d="M74.73,70.98H54.7l-5.23-13.23H24.61l-4.95,13.23H0L29.02,1.81h16.99L74.73,70.98z M55.92,69.2h16.14
			L44.81,3.59H30.2L2.69,69.2h15.74l4.95-13.23h27.31L55.92,69.2z M46.87,44.71h-19.5l9.86-26.62L46.87,44.71z M29.94,42.93h14.39
			l-7.11-19.64L29.94,42.93z"/>
	</g>
	<g>
		<path class="st0" d="M105.84,70.98H78.11V1.81h27.73c14.92,0,23.83,6.81,23.83,18.22c0,6.5-3.35,11.66-9.28,14.46
			c7.39,2.23,12.04,8.28,12.04,16C132.44,63.32,122.49,70.98,105.84,70.98z M79.9,69.2h25.95c7.46,0,24.81-1.82,24.81-18.71
			c0-9.27-6.75-13.73-13.06-14.82l-0.74-0.13v-1.59l0.61-0.2c6.73-2.24,10.43-7.11,10.43-13.72c0-14.83-15.42-16.43-22.05-16.43
			H79.9V69.2z M103.85,57.85H93.82V40.64h9.94c3.07,0,12.41,0,12.41,8.32C116.16,54.69,111.79,57.85,103.85,57.85z M95.6,56.06h8.24
			c4.8,0,10.53-1.23,10.53-7.1c0-4.52-3.28-6.53-10.62-6.53H95.6V56.06z M103.46,30.43h-9.65V14.75h8.89
			c7.58,0,11.27,2.44,11.27,7.46C113.97,27.44,110.14,30.43,103.46,30.43z M95.6,28.65h7.86c3.98,0,8.72-1.12,8.72-6.44
			c0-2.64-1.08-5.67-9.48-5.67h-7.1V28.65z"/>
	</g>
	<g>
		<path class="st0" d="M162,72.69c-10.08,0-19.99-3.83-25.87-9.98l-0.6-0.63l11.98-12.19l0.63,0.79c3.11,3.94,8.94,6.8,13.86,6.8
			c3.15,0,8.43-0.84,8.43-6.44c0-4.27-4.04-5.75-13.17-8.7l-0.2-0.06c-8.82-2.84-17.85-7.46-17.85-20.17
			c0-15.21,13.55-22.02,26.97-22.02c8.28,0,16.97,3.26,22.69,8.52l0.67,0.61l-11.71,12.35l-0.64-0.81
			c-2.48-3.17-7.23-5.46-11.29-5.46c-2.56,0-8.53,0.57-8.53,5.86c0,3.61,2.97,4.92,9.75,7.05c9.11,2.94,21.57,6.96,21.57,21.13
			C188.68,66.58,174.31,72.69,162,72.69z M138.03,62.09c5.61,5.46,14.7,8.82,23.97,8.82c11.49,0,24.9-5.65,24.9-21.57
			c0-12.86-11.27-16.5-20.32-19.42c-5.9-1.85-10.99-3.45-10.99-8.75c0-4.79,3.86-7.65,10.32-7.65c4.29,0,9.09,2.17,12.03,5.36
			l9.06-9.55c-5.39-4.61-13.27-7.44-20.8-7.44C153.65,1.88,141,8.14,141,22.12c0,11.53,7.98,15.69,16.61,18.47l0.2,0.06
			c8.99,2.9,14.41,4.65,14.41,10.4c0,5.23-3.73,8.22-10.22,8.22c-5.18,0-11.04-2.72-14.61-6.71L138.03,62.09z"/>
	</g>
	<g>
		<path class="st0" d="M232.04,72.79c-10.5,0-20.02-3.6-26.83-10.15c-6.91-6.64-10.71-16.06-10.71-26.53
			C194.51,14.85,209.94,0,232.04,0c10.61,0,20.16,3.46,26.9,9.75c7.02,6.55,10.73,15.66,10.73,26.36
			C269.68,57.71,254.2,72.79,232.04,72.79z M232.04,1.79c-21.38,0-35.75,13.79-35.75,34.32c0,20.55,14.7,34.89,35.75,34.89
			c21.11,0,35.85-14.35,35.85-34.89C267.89,15.58,253.48,1.79,232.04,1.79z M232.04,57.94c-11.85,0-20.12-8.98-20.12-21.83
			c0-12.43,8.46-21.45,20.12-21.45c11.71,0,20.21,9.02,20.21,21.45C252.26,48.76,243.76,57.94,232.04,57.94z M232.04,16.44
			c-10.79,0-18.33,8.09-18.33,19.67c0,11.8,7.54,20.05,18.33,20.05c10.85,0,18.43-8.24,18.43-20.05
			C250.47,24.71,242.72,16.44,232.04,16.44z"/>
	</g>
	<g>
		<path class="st0" d="M322.88,70.98h-44.24V1.81h18.16v53.21h26.08V70.98z M280.43,69.2h40.66V56.8h-26.08V3.59h-14.59V69.2z"/>
	</g>
	<g>
		<path class="st0" d="M355.39,72.79c-18,0-29.64-11.04-29.64-28.11V1.81h17.97v41.53c0,3.05,0.85,13,11.77,13
			c10.62,0,11.77-9.09,11.77-13V1.81h18.06v42.87C385.31,61.49,373.29,72.79,355.39,72.79z M327.54,3.59v41.08
			c0,15.99,10.93,26.33,27.85,26.33c16.83,0,28.14-10.58,28.14-26.33V3.59h-14.49v39.75c0,9.26-5.07,14.79-13.55,14.79
			c-9.99,0-13.55-7.64-13.55-14.79V3.59H327.54z"/>
	</g>
	<g>
		<path class="st0" d="M485.34,70.98h-18.06V41.8L446.31,9.65v7.84h-19.04v53.49h-18.06V17.49h-19.04V1.81h72.89l13.86,24.04
			l13.86-24.04H512l-26.66,40V70.98z M469.06,69.2h14.49V41.26l25.11-37.67h-16.85l-14.89,25.83L462.04,3.59h-70.07V15.7H411V69.2
			h14.49V15.7h19.04V3.64l24.53,37.63V69.2z"/>
	</g>
</g>
</svg>
