<?xml version="1.0" encoding="utf-8"?>
<!-- Generator: Adobe Illustrator 26.5.0, SVG Export Plug-In . SVG Version: 6.00 Build 0)  -->
<svg version="1.1" id="Calque_1" xmlns="http://www.w3.org/2000/svg" xmlns:xlink="http://www.w3.org/1999/xlink" x="0px" y="0px"
	 viewBox="0 0 512 71.42" style="enable-background:new 0 0 512 71.42;" xml:space="preserve">
<style type="text/css">
	.st0{fill:#FFFFFF;}
</style>
<g>
	<path class="st0" d="M28.44,1.82L0,69.6h17.81l4.98-13.31h26.23l5.27,13.31h18.19L44.33,1.82H28.44z M27.48,43.18l8.62-23.27
		l8.43,23.27H27.48z"/>
	<path class="st0" d="M117.09,34.08v-0.19c6.61-2.2,11.11-7.18,11.11-14.65c0-13.69-12.54-17.43-23.07-17.43h-27V69.6h27
		c12.93,0,25.85-4.98,25.85-19.72C130.97,40.98,124.84,35.42,117.09,34.08z M93.92,14.84h8.04c6.89,0,10.44,2.01,10.44,6.61
		c0,4.79-3.54,7.37-9.67,7.37h-8.81V14.84z M103.11,56.39h-9.19V40.88h9.1c6.99,0,11.58,1.82,11.58,7.47
		C114.6,54.96,108.28,56.39,103.11,56.39z"/>
	<path class="st0" d="M165.53,13.6c4.21,0,9.29,2.3,12.06,5.84l10.44-11.01c-5.94-5.46-14.55-8.33-22.21-8.33
		c-12.64,0-26.23,6.22-26.23,21.26c0,12.26,8.71,16.66,17.33,19.44c8.9,2.87,14.07,4.5,14.07,9.67c0,5.46-4.4,7.37-9.38,7.37
		c-5.36,0-11.39-3.06-14.65-7.18l-10.72,10.91c5.94,6.22,15.7,9.77,25.37,9.77c13.4,0,25.95-6.99,25.95-22.6
		c0-13.5-11.87-17.43-21.06-20.39c-6.41-2.01-10.44-3.45-10.44-7.95C156.05,15.03,161.32,13.6,165.53,13.6z"/>
	<path class="st0" d="M232.07,0c-21.16,0-36.86,13.69-36.86,35.42c0,21.45,15.7,36,36.86,36c21.25,0,36.96-14.55,36.96-36
		C269.02,13.69,253.32,0,232.07,0z M232.07,56.49c-11.39,0-19.34-8.81-19.34-21.06c0-11.87,7.85-20.68,19.34-20.68
		c11.49,0,19.44,8.81,19.44,20.68C251.5,47.68,243.46,56.49,232.07,56.49z"/>
	<polygon class="st0" points="296.3,1.82 279.84,1.82 279.84,69.6 322.54,69.6 322.54,55.34 296.3,55.34 	"/>
	<path class="st0" d="M368.97,42.7c0,7.28-3.45,13.98-12.73,13.98c-9.19,0-12.73-6.7-12.73-13.98V1.82h-16.28v42.22
		c0,16.28,11.11,27.38,28.91,27.38c17.71,0,29.2-11.11,29.2-27.38V1.82h-16.37V42.7z"/>
	<polygon class="st0" points="492.85,1.82 478.39,26.9 463.94,1.82 446.71,1.82 444.12,1.82 392.04,1.82 392.04,15.8 411.19,15.8 
		411.19,69.6 427.56,69.6 427.56,15.8 446.71,15.8 446.71,5.79 469.59,40.88 469.59,69.6 485.96,69.6 485.96,40.88 512,1.82 	"/>
</g>
</svg>
