<?xml version="1.0" encoding="utf-8"?>
<!-- Generator: Adobe Illustrator 25.2.3, SVG Export Plug-In . SVG Version: 6.00 Build 0)  -->
<svg version="1.1" id="Calque_1" xmlns="http://www.w3.org/2000/svg" xmlns:xlink="http://www.w3.org/1999/xlink" x="0px" y="0px"
	 viewBox="0 0 150 150" style="enable-background:new 0 0 150 150;" xml:space="preserve">
<style type="text/css">
	.st0{fill:#FFFFFF;}
</style>
<g>
	<path class="st0" d="M0,145.68c0-42,0-84,0-126c1.11-2.64,3.12-3.55,5.93-3.5c6.74,0.11,13.47,0.04,20.21,0.04
		c0.52,0,1.04,0,1.71,0c0-1.86-0.04-3.56,0.01-5.26C28,6.15,31.44,2.11,36.22,1.5c2.6-0.33,5.26-0.2,7.89-0.21
		c6.43-0.01,10.61,4.19,10.63,10.65c0.01,1.4,0,2.79,0,4.19c13.51,0,26.81,0,40.22,0c0-1.85-0.04-3.6,0.01-5.35
		c0.14-4.95,3.46-9.04,8.36-9.63c3.36-0.4,6.85-0.4,10.21,0.01c4.95,0.61,8.24,4.78,8.31,9.81c0.02,1.73,0,3.47,0,5.26
		c7.71,0,15.18,0,22.65,0c3.75,0,5.49,1.72,5.49,5.43c0,7.96,0,15.92,0,23.88c0,32.72,0.01,65.43-0.04,98.15
		c0,1.16-0.3,2.45-0.87,3.45c-1,1.76-2.83,2-4.73,2c-46.14-0.01-92.28-0.02-138.41,0.02C3.16,149.16,1.13,148.31,0,145.68z
		 M9.2,57.15c0,27.64,0,55.18,0,82.78c43.92,0,87.73,0,131.6,0c0-27.64,0-55.19,0-82.78C96.89,57.15,53.07,57.15,9.2,57.15z
		 M27.84,25.43c-6.37,0-12.5,0-18.63,0c0,7.54,0,14.98,0,22.41c43.93,0,87.75,0,131.57,0c0-7.54,0-14.97,0-22.42
		c-6.35,0-12.57,0-18.92,0c0,1.79,0.02,3.49,0,5.19c-0.09,5.6-4.2,9.79-9.8,9.95c-2.24,0.07-4.49,0.03-6.74,0.01
		c-6.2-0.06-10.33-4.23-10.36-10.44c-0.01-1.55,0-3.1,0-4.73c-13.46,0-26.76,0-40.22,0c0,1.83,0.02,3.57,0,5.32
		c-0.07,5.59-3.74,9.73-9.27,10.17c-2.76,0.22-5.57,0.22-8.34,0c-5.54-0.43-9.23-4.58-9.28-10.15C27.83,29,27.84,27.26,27.84,25.43z
		 M36.94,21.14c0,3.07,0.03,6.15-0.01,9.22c-0.01,1.05,0.36,1.53,1.44,1.51c1.95-0.04,3.9-0.04,5.86,0c1.1,0.02,1.43-0.5,1.43-1.53
		c-0.02-6.15-0.03-12.3,0-18.45c0.01-1.16-0.49-1.55-1.59-1.53c-1.8,0.05-3.61,0.06-5.42,0c-1.25-0.05-1.75,0.4-1.72,1.69
		C36.99,15.08,36.94,18.11,36.94,21.14z M112.76,20.79c0-3.08-0.03-6.15,0.01-9.22c0.02-1.13-0.4-1.59-1.55-1.56
		c-1.9,0.05-3.81,0.05-5.71,0c-1.09-0.03-1.46,0.46-1.46,1.5c0.02,6.2,0.02,12.4,0,18.6c0,1,0.4,1.4,1.4,1.38
		c1.9-0.04,3.81-0.06,5.71,0.01c1.22,0.04,1.64-0.42,1.61-1.62C112.72,26.85,112.76,23.82,112.76,20.79z"/>
	<path class="st0" d="M114.49,64.83c3.66,0,7.32-0.01,10.99,0c3.08,0.01,4.95,1.83,4.96,4.9c0.02,6.49,0.02,12.99,0,19.48
		c-0.01,2.99-1.88,4.86-4.84,4.87c-7.47,0.02-14.94,0.02-22.41,0c-2.97-0.01-4.89-1.85-4.91-4.82c-0.05-6.54-0.05-13.09,0-19.63
		c0.02-2.97,1.96-4.78,4.94-4.79C106.97,64.82,110.73,64.83,114.49,64.83z M107.48,74.01c0,3.66,0,7.23,0,10.88
		c4.64,0,9.19,0,13.74,0c0-3.68,0-7.26,0-10.88C116.6,74.01,112.09,74.01,107.48,74.01z"/>
	<path class="st0" d="M33.33,130.75c-3.76,0-7.52,0.01-11.28,0c-2.99-0.01-4.84-1.83-4.85-4.84c-0.03-6.49-0.03-12.99,0-19.48
		c0.01-3.08,1.85-4.91,4.95-4.92c7.42-0.03,14.84-0.03,22.26,0c3.07,0.01,4.92,1.86,4.94,4.95c0.04,6.45,0.04,12.89,0,19.34
		c-0.02,3.18-1.86,4.95-5.04,4.96C40.65,130.76,36.99,130.75,33.33,130.75z M40.16,110.71c-4.7,0-9.21,0-13.77,0
		c0,3.67,0,7.25,0,10.85c4.64,0,9.2,0,13.77,0C40.16,117.91,40.16,114.37,40.16,110.71z"/>
	<path class="st0" d="M33.37,64.83c3.66,0,7.32-0.01,10.99,0c3.08,0.01,4.97,1.8,4.99,4.88c0.04,6.49,0.04,12.99,0,19.48
		c-0.02,3.07-1.91,4.88-4.99,4.89c-7.42,0.01-14.84,0.01-22.26,0c-3-0.01-4.88-1.83-4.9-4.81c-0.03-6.54-0.03-13.09,0-19.63
		c0.02-2.98,1.9-4.8,4.9-4.81C25.85,64.82,29.61,64.83,33.37,64.83z M26.42,74.01c0,3.71,0,7.29,0,10.9c4.63,0,9.14,0,13.73,0
		c0-3.66,0-7.24,0-10.9C35.54,74.01,31.03,74.01,26.42,74.01z"/>
	<path class="st0" d="M73.88,64.83c3.66,0,7.32-0.01,10.97,0c3.21,0.01,5.06,1.87,5.07,5.1c0.01,6.34,0.01,12.68,0,19.02
		c-0.01,3.3-1.86,5.12-5.2,5.13c-7.27,0.01-14.53,0.01-21.8,0c-3.41,0-5.2-1.82-5.21-5.25c-0.01-6.24-0.01-12.49,0-18.73
		c0-3.51,1.79-5.27,5.34-5.27C66.66,64.83,70.27,64.83,73.88,64.83z M66.93,73.99c0,3.75,0,7.33,0,10.89c4.68,0,9.23,0,13.78,0
		c0-3.7,0-7.28,0-10.89C76.06,73.99,71.54,73.99,66.93,73.99z"/>
	<path class="st0" d="M73.84,130.75c-3.71,0-7.41,0.01-11.12,0c-3.15-0.01-4.99-1.85-5-5c-0.01-6.39-0.01-12.78,0-19.17
		c0.01-3.21,1.86-5.07,5.1-5.08c7.32-0.02,14.63-0.02,21.95,0c3.32,0.01,5.15,1.86,5.16,5.18c0.01,6.29,0.01,12.58,0,18.88
		c0,3.41-1.81,5.19-5.26,5.19C81.05,130.75,77.45,130.75,73.84,130.75z M80.73,121.58c0-3.72,0-7.26,0-10.88c-4.65,0-9.21,0-13.84,0
		c0,3.67,0,7.24,0,10.88C71.54,121.58,76.1,121.58,80.73,121.58z"/>
</g>
</svg>
