<?xml version="1.0" encoding="utf-8"?>
<!-- Generator: Adobe Illustrator 26.5.0, SVG Export Plug-In . SVG Version: 6.00 Build 0)  -->
<svg version="1.1" id="Calque_1" xmlns="http://www.w3.org/2000/svg" xmlns:xlink="http://www.w3.org/1999/xlink" x="0px" y="0px"
	 viewBox="0 0 512 512" style="enable-background:new 0 0 512 512;" xml:space="preserve">
<g>
	<path d="M305.62,327.88c16.68,0,33.09,0,49.87,0c3.78-24.17,7.49-47.89,11.29-72.19c-25.49,0-50.33,0-75.55,0
		c-0.13-1.96-0.31-3.45-0.31-4.93c-0.02-14.64-0.06-29.27,0-43.91c0.09-21.42,12.18-35.48,33.37-37.19
		c14.52-1.17,29.18-0.68,43.77-0.92c2.91-0.05,5.82-0.01,9.1-0.01c0-21.01,0-41.75,0-63.28c-5.95-0.81-12.14-1.85-18.37-2.46
		c-24.13-2.39-48.27-4.88-72.25,1.31c-36.38,9.4-60.96,35.77-65.51,73.13c-2.4,19.72-1.7,39.83-2.3,59.76
		c-0.18,5.83-0.03,11.68-0.03,18.15c-19.19,0-38.15,0-57.43,0c0,24.31,0,47.99,0,72.31c18.86,0,37.81,0,57.09,0
		c0,61.67,0,122.69,0,183.73C109.13,496.82,1.48,402.7,0.67,257.42C-0.11,115.77,111.81,5.33,245.9,0.19
		c142.53-5.46,260.46,106.08,265.25,247.34c2.28,67.07-17.73,127.29-61.94,178.47c-38.27,44.31-85.88,73.24-143.6,85.99
		C305.62,450.44,305.62,389.43,305.62,327.88z"/>
</g>
</svg>
