<?xml version="1.0" encoding="utf-8"?>
<!-- Generator: Adobe Illustrator 25.2.3, SVG Export Plug-In . SVG Version: 6.00 Build 0)  -->
<svg version="1.1" id="Calque_1" xmlns="http://www.w3.org/2000/svg" xmlns:xlink="http://www.w3.org/1999/xlink" x="0px" y="0px"
	 viewBox="0 0 150 150" style="enable-background:new 0 0 150 150;" xml:space="preserve">
<style type="text/css">
	.st0{fill:#FFFFFF;}
</style>
<g>
	<path class="st0" d="M150,78.66c-1.61,28.1-16.02,51.77-45.38,64.91c-20.9,9.36-42.15,8.33-62.83-1.63
		c-2.88-1.38-5.61-1.73-8.64-0.7c-4.11,1.41-8.28,2.64-12.44,3.91c-4.92,1.5-9.32,0.54-12.85-3.23c-3.49-3.73-4.12-8.15-2.41-12.9
		c1.27-3.53,2.57-7.05,3.97-10.53c1.16-2.89,0.94-5.57-0.53-8.3C2.13,97.61-0.68,84.14,0.14,69.91C1.86,40.08,22.48,13.29,50.9,3.92
		c31.31-10.32,64.43-0.05,84.21,26.26C145.04,43.4,149.76,58.44,150,78.66z M74.89,10.4c-8.03-0.04-15.77,1.48-23.28,4.32
		C27.87,23.7,11.23,47.09,10.5,72.46c-0.34,11.68,2.15,22.68,7.69,32.96c2.89,5.36,3.28,10.84,1.11,16.52
		c-1.31,3.45-2.66,6.9-3.87,10.38c-0.25,0.72-0.31,1.98,0.11,2.35c0.52,0.47,1.71,0.55,2.48,0.33c4.13-1.18,8.23-2.45,12.31-3.79
		c5.45-1.79,10.65-1.38,15.8,1.2c12.61,6.31,25.91,8.23,39.81,5.86c34.63-5.91,58.16-38.84,52.63-73.63
		C133.6,33.4,106.58,10.38,74.89,10.4z"/>
	<path class="st0" d="M69.69,89.63c0-6.47-0.01-12.95,0-19.42c0.01-3.46,2.15-5.82,5.24-5.81c3.08,0.01,5.21,2.39,5.21,5.85
		c0.01,12.95,0.01,25.9,0,38.85c0,3.44-2.18,5.85-5.25,5.83c-3.05-0.01-5.2-2.43-5.2-5.88C69.68,102.58,69.69,96.11,69.69,89.63z"/>
	<path class="st0" d="M74.89,39.98c4.75-0.02,8.73,3.93,8.75,8.7c0.02,4.75-3.93,8.73-8.7,8.75c-4.75,0.02-8.73-3.93-8.75-8.7
		C66.17,43.98,70.11,40.01,74.89,39.98z"/>
</g>
</svg>
