<?xml version="1.0" encoding="utf-8"?>
<!-- Generator: Adobe Illustrator 26.5.0, SVG Export Plug-In . SVG Version: 6.00 Build 0)  -->
<svg version="1.1" id="Calque_1" xmlns="http://www.w3.org/2000/svg" xmlns:xlink="http://www.w3.org/1999/xlink" x="0px" y="0px"
	 viewBox="0 0 512 512" style="enable-background:new 0 0 512 512;" xml:space="preserve">
<g>
	<path d="M255.93,512C114.52,511.96-0.13,397.06,0.04,255.54C0.2,114.4,115.1-0.16,256.32,0
		c141.22,0.16,255.73,114.92,255.64,256.19C511.87,397.41,397.14,512.04,255.93,512z M413.65,256.22c0.15,0,0.31,0,0.46,0
		c0-19.11,0.13-38.22-0.07-57.32c-0.08-7.48-0.36-15.04-1.47-22.42c-4.93-32.74-21.12-57.17-52.87-69.57
		c-13.17-5.14-26.98-7.34-41.04-7.39c-40.09-0.16-80.17-0.16-120.26,0.03c-8.49,0.04-17.08,0.55-25.45,1.95
		c-32.26,5.38-56.16,21.84-68.11,53.27c-4.9,12.88-6.93,26.34-6.94,40.1c-0.03,39.75-0.08,79.5,0.06,119.26
		c0.03,7.31,0.39,14.7,1.51,21.91c4.72,30.4,19.27,53.98,48.11,67.1c14.17,6.45,29.29,9.25,44.73,9.33
		c42.47,0.24,84.95,0.27,127.42-0.01c16.49-0.11,32.58-3.2,47.49-10.66c30.61-15.32,44.1-41.9,46.13-74.45
		C414.83,303.72,413.65,279.93,413.65,256.22z"/>
	<path d="M256.13,129.09c20.81,0,41.63-0.2,62.44,0.11c6.94,0.1,14.01,0.89,20.77,2.43c25.12,5.73,41.36,24.04,44.56,49.8
		c0.69,5.57,1.04,11.22,1.06,16.83c0.09,39.25,0.34,78.51-0.16,117.75c-0.12,9.56-1.61,19.51-4.65,28.55
		c-7.88,23.36-25.63,35.8-49.59,37.13c-29.78,1.65-59.67,1.5-89.51,1.59c-19.78,0.06-39.61-0.03-59.32-1.47
		c-30.11-2.19-50.31-22.61-53.75-52.79c-0.6-5.24-0.94-10.54-0.95-15.81c-0.08-39.42-0.32-78.85,0.18-118.26
		c0.12-9.22,1.72-18.79,4.67-27.52c7.91-23.38,25.67-35.38,49.59-37.18c20.72-1.56,41.58-1.2,62.38-1.65
		c4.09-0.09,8.19-0.01,12.28-0.01C256.13,128.75,256.13,128.92,256.13,129.09z M255.68,339.21c45.66,0.43,83.17-36.56,83.52-82.36
		c0.35-46.03-36.1-83.47-81.85-84.06c-46.46-0.6-84.03,35.99-84.54,82.36C172.3,301.44,209.1,338.77,255.68,339.21z M339.98,189.75
		c9.12-0.11,16.45-7.62,16.33-16.72c-0.12-9.14-7.53-16.42-16.68-16.4c-9.35,0.01-16.84,7.7-16.57,17
		C323.34,182.84,330.71,189.86,339.98,189.75z"/>
	<path d="M256.73,202.34c29.94,0.59,53.57,24.86,52.93,54.38c-0.65,29.98-24.83,53.52-54.38,52.93
		c-29.89-0.59-53.58-24.93-52.94-54.39C202.98,225.32,227.19,201.76,256.73,202.34z"/>
</g>
</svg>
