<?xml version="1.0" encoding="utf-8"?>
<!-- Generator: Adobe Illustrator 25.2.3, SVG Export Plug-In . SVG Version: 6.00 Build 0)  -->
<svg version="1.1" id="Calque_1" xmlns="http://www.w3.org/2000/svg" xmlns:xlink="http://www.w3.org/1999/xlink" x="0px" y="0px"
	 viewBox="0 0 150 150" style="enable-background:new 0 0 150 150;" xml:space="preserve">
<style type="text/css">
	.st0{fill:#FFFFFF;}
</style>
<g>
	<path class="st0" d="M0,96.97c0.46-2.58,0.81-5.19,1.41-7.73c4.53-19.3,20.84-34.26,40.41-37.13
		c26.06-3.82,50.19,12.97,55.66,38.72c5.67,26.71-12.42,53.58-39.26,58.32c-1.82,0.32-3.65,0.57-5.48,0.85c-2.34,0-4.69,0-7.03,0
		c-1.77-0.28-3.55-0.54-5.32-0.84C21.78,146,5.83,131.1,1.5,112.75c-0.66-2.78-1.01-5.63-1.5-8.45C0,101.86,0,99.41,0,96.97z
		 M49.22,55.18C24.13,55.19,3.71,75.61,3.67,100.74c-0.04,25.08,20.36,45.52,45.51,45.59c25.12,0.07,45.73-20.53,45.65-45.61
		C94.74,75.58,74.29,55.17,49.22,55.18z"/>
	<path class="st0" d="M150,35.16c-0.75,2.35-2.07,4.19-4.55,4.93c-2.51,0.76-5.24-0.15-6.81-2.2c-1.55-2.03-1.75-4.84-0.49-7.02
		c1.32-2.29,3.79-3.48,6.44-3.09c0.48,0.07,0.95,0.18,1.56,0.3c0-5.35,0-10.67,0-16.14c-3.25,0.65-6.44,1.28-9.63,1.92
		c-1.62,0.33-3.23,0.78-4.87,0.99c-1.07,0.14-1.22,0.63-1.21,1.54c0.03,3.86,0.05,7.72,0,11.57c-0.06,4.5-3.82,7.55-7.9,6.46
		c-3.36-0.9-5.42-4.27-4.61-7.56c0.86-3.52,4.22-5.57,7.73-4.72c0.33,0.08,0.66,0.16,1.16,0.28c0-1.98,0-3.86,0-5.74
		c0-2.98-0.01-5.96,0-8.94c0.01-2.84,1.13-4.21,3.91-4.77c4.4-0.89,8.79-1.78,13.19-2.67c0.27-0.06,0.53-0.2,0.79-0.3
		c0.78,0,1.56,0,2.34,0c1.35,0.74,2.39,1.75,2.93,3.22C150,13.87,150,24.51,150,35.16z M146.13,8.19c0-1.56,0-2.98,0-4.58
		C141,4.65,136.05,5.65,131.1,6.7c-0.26,0.05-0.6,0.51-0.61,0.8c-0.07,1.2-0.03,2.41-0.03,3.85
		C135.82,10.27,140.99,9.22,146.13,8.19z M126.82,28.27c0-1.43-1.27-2.7-2.71-2.69c-1.44,0-2.68,1.26-2.68,2.71
		c0,1.45,1.26,2.7,2.7,2.69C125.56,30.97,126.82,29.7,126.82,28.27z M146.28,33.96c-0.03-1.54-1.21-2.67-2.73-2.62
		c-1.43,0.04-2.59,1.22-2.6,2.64c-0.01,1.48,1.2,2.69,2.7,2.68C145.19,36.66,146.31,35.51,146.28,33.96z"/>
	<path class="st0" d="M105.99,29.05c-5.26,1.07-10.45,2.12-15.74,3.2c0,4.4,0.03,8.74-0.01,13.08c-0.03,3.25-2.08,5.75-5.21,6.31
		c-2.59,0.47-4.74-0.41-6.26-2.54c-1.57-2.19-1.66-4.57-0.31-6.88c1.36-2.31,3.48-3.33,6.17-3.07c0.61,0.06,1.22,0.22,1.99,0.37
		c0-0.62,0-1.14,0-1.66c0-4.39-0.02-8.78,0.01-13.18c0.02-2.62,1.15-3.96,3.68-4.49c4.63-0.95,9.26-1.91,13.89-2.85
		c3.42-0.69,5.54,1.02,5.55,4.49c0.03,9.76,0.05,19.52,0.04,29.28c0,3.85-3.18,6.7-7,6.37c-3.59-0.31-6.26-3.66-5.7-7.16
		c0.62-3.9,4.13-6.23,7.96-5.3c0.28,0.07,0.57,0.12,0.94,0.2C105.99,39.84,105.99,34.5,105.99,29.05z M90.44,28.47
		c4.64-0.93,9.21-1.85,13.79-2.78c0.38-0.08,0.8-0.09,1.13-0.26c0.29-0.15,0.66-0.48,0.67-0.74c0.07-1.25,0.03-2.5,0.03-3.86
		c-0.53,0.07-0.87,0.08-1.19,0.15c-3.63,0.72-7.25,1.46-10.88,2.19c-4.07,0.81-4.07,0.8-3.69,5.02
		C90.31,28.22,90.35,28.26,90.44,28.47z M86.59,45.43c0-1.48-1.19-2.67-2.69-2.67c-1.48,0-2.7,1.21-2.7,2.67
		c0,1.46,1.21,2.66,2.7,2.66C85.41,48.09,86.59,46.92,86.59,45.43z M106.07,51.14c-0.02-1.52-1.17-2.67-2.67-2.66
		c-1.5,0.01-2.65,1.2-2.64,2.7c0.01,1.48,1.22,2.69,2.69,2.67C104.92,53.84,106.09,52.63,106.07,51.14z"/>
	<path class="st0" d="M69.3,102.04c-0.07,11.43-9.39,20.7-20.73,20.63c-11.4-0.07-20.67-9.41-20.62-20.76
		C28,90.49,37.29,81.28,48.69,81.33C60.13,81.37,69.37,90.67,69.3,102.04z M48.62,118.97c9.41,0,17.01-7.6,17.01-17.02
		c0-9.32-7.61-16.96-16.92-16.98c-9.39-0.03-17.06,7.59-17.08,16.97C31.61,111.35,39.21,118.97,48.62,118.97z"/>
	<path class="st0" d="M83.84,99.87c0,0.49,0.02,0.98,0,1.46c-0.05,1.09-0.6,1.77-1.7,1.81c-1.17,0.04-1.75-0.63-1.9-1.77
		c-0.31-2.56-0.41-5.18-1.04-7.66c-3.43-13.44-15.12-22.77-29-23.33c-0.2-0.01-0.39-0.02-0.59-0.02c-1.24,0.01-2.11-0.45-2.16-1.82
		c-0.04-1.19,0.77-1.79,2.31-1.79c3.64,0,7.18,0.66,10.62,1.82C73.79,73.08,83.44,85.96,83.84,99.87z"/>
	<path class="st0" d="M47.62,135.96c-15.56-0.44-29.71-12.68-32.38-28.06c-0.35-2.01-0.48-4.06-0.6-6.1
		c-0.09-1.43,0.59-2.19,1.74-2.21c1.15-0.02,1.8,0.68,1.85,2.13c0.25,8.14,3.05,15.25,8.73,21.12c5.82,6.03,13.01,9.12,21.36,9.53
		c0.44,0.02,1.02-0.12,1.28,0.11c0.56,0.49,1.33,1.18,1.31,1.77c-0.02,0.58-0.8,1.31-1.42,1.66
		C49.01,136.17,48.25,135.96,47.62,135.96z"/>
	<path class="st0" d="M55.91,101.98c0,3.97-3.3,7.28-7.28,7.28c-3.98,0-7.28-3.3-7.29-7.28c0-3.97,3.31-7.29,7.28-7.29
		C52.59,94.69,55.91,98.01,55.91,101.98z M52.2,101.95c-0.01-2.04-1.59-3.57-3.63-3.54c-1.97,0.03-3.49,1.55-3.5,3.53
		c-0.02,2.05,1.52,3.61,3.56,3.62C50.66,105.55,52.21,103.99,52.2,101.95z"/>
</g>
</svg>
