<?xml version="1.0" encoding="utf-8"?>
<!-- Generator: Adobe Illustrator 25.2.3, SVG Export Plug-In . SVG Version: 6.00 Build 0)  -->
<svg version="1.1" id="Calque_1" xmlns="http://www.w3.org/2000/svg" xmlns:xlink="http://www.w3.org/1999/xlink" x="0px" y="0px"
	 viewBox="0 0 150 150" style="enable-background:new 0 0 150 150;" xml:space="preserve">
<style type="text/css">
	.st0{fill:#FFFFFF;}
</style>
<g>
	<path class="st0" d="M81.76,70.9c-19.53-0.03-35.41-15.93-35.4-35.47c0-19.6,15.97-35.5,35.59-35.44
		c19.52,0.06,35.37,16,35.32,35.55C117.23,55.06,101.3,70.92,81.76,70.9z M89.73,43.56c0-5.49,0-10.84,0-16.2
		c-5.4,0-10.53,0-15.83,0c0,5.45,0,10.79,0,16.2C79.26,43.56,84.35,43.56,89.73,43.56z M110.68,27.38c-5.22,0-10.35,0-15.38,0
		c0,5.43,0,10.75,0,16.15c5.1,0,10.24,0,15.39,0C112.19,38.09,112.21,32.74,110.68,27.38z M68.33,27.36c-5.13,0-10.26,0-15.39,0
		c-1.49,5.46-1.51,10.81,0,16.12c5.25,0,10.38,0,15.39,0C68.33,38.08,68.33,32.81,68.33,27.36z M74.66,21.81c0.61,0,1.11,0,1.61,0
		c4.19,0,8.37,0,12.69,0c-0.82-4.79-1.79-9.36-4.16-13.49c-2.13-3.72-3.82-3.72-5.96-0.03C76.45,12.41,75.48,17,74.66,21.81z
		 M74.67,49.15c0.85,4.83,1.81,9.54,4.36,13.73c2.03,3.34,3.57,3.34,5.59-0.02c2.53-4.19,3.5-8.89,4.35-13.72
		C84.15,49.15,79.46,49.15,74.67,49.15z M108.53,21.75C104.39,14.2,98.48,9.28,90.66,6.76c1.4,5.04,2.77,9.96,4.17,14.98
		C99.15,21.75,103.68,21.75,108.53,21.75z M90.65,64.13c7.88-2.59,13.82-7.49,17.82-14.95c-4.82,0-9.4,0-13.66,0
		C93.41,54.24,92.05,59.12,90.65,64.13z M55.1,49.15c4.13,7.52,10.03,12.46,17.87,14.96c-1.39-5-2.76-9.92-4.16-14.96
		C64.5,49.15,59.97,49.15,55.1,49.15z M68.8,21.77c1.43-5.15,2.8-10.05,4.18-15.01C65.1,9.34,59.16,14.24,55.09,21.8
		c4.57,0,8.82,0,13.07,0C68.44,21.8,68.72,21.77,68.8,21.77z"/>
	<path class="st0" d="M47.56,89.93c-3.2-7.13-6.33-14.12-9.47-21.1c-3.93-8.74-7.9-17.47-11.78-26.23c-0.55-1.25-1.16-1.76-2.6-1.74
		c-6.53,0.09-13.07,0.04-19.6,0.04c-0.4,0-0.8,0.01-1.19-0.01C1.15,40.8,0.01,39.74,0,38.19c-0.01-1.55,1.13-2.68,2.87-2.73
		c1.87-0.05,3.75-0.01,5.63-0.01c5.8,0,11.59,0.09,17.39-0.05c2.36-0.06,3.63,0.83,4.51,2.97c1.68,4.09,3.62,8.07,5.39,12.13
		c0.42,0.96,0.91,1.4,2.01,1.34c1.7-0.1,3.41-0.03,5.11-0.02c2.17,0.01,3.41,0.99,3.45,2.68c0.03,1.74-1.26,2.76-3.52,2.78
		c-1.14,0.01-2.27,0.01-3.41,0.02c-0.1,0-0.19,0.08-0.39,0.17c0.2,0.51,0.38,1.04,0.6,1.54c4.42,9.83,8.86,19.65,13.24,29.5
		c0.51,1.16,1.12,1.53,2.39,1.53c17.73-0.05,35.46-0.03,53.19-0.03c0.9,0,1.65,0.07,2.18-1.06c4.78-10.29,9.63-20.54,14.47-30.81
		c0.09-0.2,0.15-0.41,0.32-0.87c-1.77,0-3.38,0.02-4.99-0.01c-1.9-0.03-3.08-1.06-3.12-2.65c-0.04-1.66,1.18-2.76,3.16-2.79
		c2.16-0.03,4.32,0.07,6.48-0.06c0.56-0.03,1.31-0.53,1.59-1.03c0.89-1.58,1.59-3.26,2.37-4.9c0.95-1.97,2.34-2.65,3.89-1.92
		c1.57,0.74,1.97,2.24,1.05,4.2c-6.34,13.5-12.7,27-19.05,40.5c-0.58,1.23-1.3,2.42-1.72,3.7c-0.83,2.53-2.49,3.2-5.07,3.19
		c-15-0.1-30-0.05-45-0.05c-5.11,0-10.23-0.01-15.34,0c-3.51,0.01-5.96,2.21-6.01,5.36c-0.05,3.23,2.43,5.54,6.01,5.54
		c22.79,0.01,45.57,0,68.36,0c0.45,0,0.91,0,1.36,0c2.13,0.03,3.39,1.07,3.36,2.77c-0.03,1.69-1.28,2.68-3.44,2.68
		c-18.64,0.01-37.28,0-55.91,0c-4.6,0-9.21,0.01-13.81,0c-6-0.02-10.62-3.98-11.32-9.66c-0.68-5.47,2.79-10.3,8.51-11.88
		C46.95,90.2,47.15,90.1,47.56,89.93z"/>
	<path class="st0" d="M107.73,144.54c9.15,0,18.3,0,27.45,0c0.51,0,1.03-0.05,1.53,0.04c1.47,0.27,2.36,1.18,2.36,2.68
		c0,1.51-0.89,2.41-2.36,2.68c-0.5,0.09-1.02,0.04-1.53,0.04c-18.3,0-36.59,0-54.89,0c-0.51,0-1.04,0.05-1.53-0.04
		c-1.46-0.28-2.36-1.18-2.36-2.69c0-1.51,0.89-2.41,2.36-2.68c0.5-0.09,1.02-0.04,1.53-0.04
		C89.44,144.54,98.58,144.54,107.73,144.54z"/>
	<path class="st0" d="M65.39,139.08c-6.01-0.03-10.89-4.98-10.85-11.01c0.04-6,5.01-10.87,11.05-10.8
		c5.94,0.06,10.77,4.96,10.76,10.92C76.35,134.2,71.42,139.1,65.39,139.08z M65.42,133.62c2.96,0.02,5.44-2.42,5.48-5.37
		c0.04-2.96-2.38-5.46-5.33-5.52c-3.05-0.06-5.57,2.41-5.56,5.46C60.01,131.14,62.46,133.6,65.42,133.62z"/>
	<path class="st0" d="M109.09,128.09c0.03,6.03-4.86,10.97-10.87,10.98c-6.02,0.02-10.94-4.9-10.94-10.91
		c0-5.95,4.85-10.84,10.79-10.9C104.1,117.21,109.06,122.08,109.09,128.09z M103.63,128.14c-0.01-2.96-2.48-5.41-5.44-5.42
		c-2.98-0.01-5.43,2.41-5.46,5.39c-0.03,3.03,2.49,5.55,5.52,5.51C101.21,133.58,103.65,131.1,103.63,128.14z"/>
	<path class="st0" d="M42.21,149.99c-4.89,0-9.78,0.08-14.66-0.07c-0.93-0.03-2.17-0.82-2.64-1.62c-0.38-0.65-0.1-2.03,0.39-2.74
		c0.41-0.6,1.55-0.97,2.37-0.97c9.72-0.06,19.43-0.05,29.15-0.03c1.98,0,3.21,1.12,3.17,2.78c-0.04,1.6-1.22,2.65-3.12,2.66
		C51.98,150.01,47.09,149.99,42.21,149.99z"/>
	<path class="st0" d="M19.07,147.28c-0.01,1.48-1.26,2.71-2.74,2.69c-1.48-0.01-2.7-1.26-2.69-2.74c0.01-1.49,1.25-2.7,2.73-2.69
		C17.85,144.56,19.08,145.81,19.07,147.28z"/>
	<path class="st0" d="M70.89,147.28c-0.02,1.47-1.27,2.71-2.74,2.69c-1.48-0.02-2.7-1.25-2.68-2.74c0.01-1.49,1.24-2.7,2.73-2.69
		C69.67,144.56,70.9,145.81,70.89,147.28z"/>
	<path class="st0" d="M147.27,149.98c-1.48-0.01-2.7-1.25-2.69-2.73c0.01-1.49,1.25-2.7,2.73-2.69c1.48,0.01,2.71,1.25,2.7,2.73
		C149.99,148.76,148.74,149.99,147.27,149.98z"/>
</g>
</svg>
