<?xml version="1.0" encoding="utf-8"?>
<!-- Generator: Adobe Illustrator 25.2.3, SVG Export Plug-In . SVG Version: 6.00 Build 0)  -->
<svg version="1.1" id="Calque_1" xmlns="http://www.w3.org/2000/svg" xmlns:xlink="http://www.w3.org/1999/xlink" x="0px" y="0px"
	 viewBox="0 0 150 150" style="enable-background:new 0 0 150 150;" xml:space="preserve">
<style type="text/css">
	.st0{fill:#FFFFFF;}
</style>
<g>
	<path class="st0" d="M0,94.04c0.37-0.29,0.78-0.55,1.12-0.89C31.78,62.5,62.43,31.84,93.08,1.18c0.33-0.33,0.59-0.74,0.89-1.11
		c0.1,0,0.2,0,0.29,0c6.26,6.18,12.53,12.36,18.88,18.63c-4.12,4.41-6.6,9.22-5.9,15.14c0.42,3.55,2.24,6.41,4.83,8.83
		c6.16,5.76,12.98,5.23,22.69-1.71c5.12,5.12,10.22,10.23,15.24,15.26c-2.96,2.96-6.02,6.02-9.12,9.12
		c-0.87-0.92-1.83-1.94-2.89-3.07c1.98-1.89,4.03-3.84,5.95-5.67c-3.22-3.21-6.29-6.26-9.48-9.44c-4.47,3.27-9.77,4.66-15.6,3.59
		c-4.59-0.84-8.41-3.07-11.48-6.59c-5.61-6.45-6.74-16.98-0.75-24.97c-4.18-4.18-8.35-8.35-12.62-12.62
		c-0.21,0.19-0.6,0.53-0.97,0.89C74.71,25.81,56.37,44.15,38.02,62.48c-0.67,0.67-0.98,1.24-0.79,2.28
		c1.97,10.62,5.82,20.57,10.81,30.09c6.29,12,14.31,22.75,23.68,32.51c0.17,0.17,0.35,0.32,0.57,0.51
		c18.7-18.71,37.37-37.38,56.09-56.11c1.13,1.18,2.1,2.19,2.99,3.11c-25.07,25.07-50.15,50.15-75.07,75.07
		c-4.99-4.98-10.11-10.11-15.31-15.31c3.48-3.83,5.99-8.4,5.49-14.14c-0.33-3.75-2.15-6.73-4.81-9.29
		c-5.5-5.29-14.51-5.96-22.88,1.82C12.53,106.79,6.27,100.56,0,94.33C0,94.23,0,94.13,0,94.04z M69.06,131.01
		C51.83,112.94,38.91,92.31,33.25,67.8C24.37,76.68,15.48,85.57,6.5,94.55c1.94,1.93,4.02,4,6.09,6.07c2.1,2.1,4.19,4.21,6.26,6.3
		c9.32-6.97,19.9-4.41,25.3,0.58c3.66,3.39,5.79,7.74,6.54,12.67c0.81,5.37-0.44,10.28-3.67,14.42c3.15,3.17,6.2,6.25,9.19,9.25
		C60.41,139.65,64.69,135.37,69.06,131.01z"/>
	<path class="st0" d="M60.78,83.98c3.21,1.08,6.14,2.03,9.02,3.07c0.85,0.3,1.43,0.2,2.13-0.34c2.43-1.87,4.9-3.67,7.49-5.6
		c0,3.18,0.06,6.14-0.03,9.09c-0.03,1.11,0.27,1.78,1.2,2.41c2.47,1.65,4.87,3.41,7.56,5.32c-2.9,0.91-5.49,1.85-8.15,2.51
		c-1.64,0.41-2.4,1.23-2.81,2.84c-0.67,2.64-1.58,5.22-2.48,8.09c-1.84-2.6-3.62-4.99-5.25-7.46c-0.68-1.03-1.43-1.37-2.64-1.33
		c-2.88,0.09-5.76,0.03-8.77,0.03c0.16-0.29,0.3-0.62,0.52-0.91c1.66-2.24,3.37-4.45,4.96-6.73c0.32-0.46,0.45-1.29,0.29-1.83
		C62.92,90.17,61.88,87.23,60.78,83.98z M68.12,91.18c-0.17,0.02-0.33,0.04-0.5,0.06c2.02,2.58,1.39,4.8-0.83,7
		c3.21-0.94,5.01,0.55,6.45,3.19c0.12-3.31,2-4.65,5-5.06c-2.74-1.29-4.01-3.2-3.07-6.49c-1.45,1.01-2.38,2.11-3.44,2.26
		C70.59,92.28,69.33,91.53,68.12,91.18z"/>
	<path class="st0" d="M59.09,51.42c3.15,1.07,5.99,1.96,8.77,3c1.06,0.39,1.78,0.24,2.65-0.45c2.3-1.81,4.68-3.52,7.31-5.48
		c0,1.18,0.01,2.12,0,3.05c-0.02,2.15,0.01,4.3-0.08,6.45c-0.03,0.88,0.25,1.42,0.98,1.92c2.53,1.72,5.01,3.52,7.75,5.46
		c-3.13,0.99-5.97,1.95-8.85,2.75c-1.09,0.3-1.57,0.85-1.87,1.9c-0.81,2.86-1.74,5.68-2.71,8.77c-1.88-2.65-3.66-5.07-5.33-7.57
		c-0.62-0.94-1.31-1.23-2.41-1.2c-2.92,0.08-5.85,0.03-8.99,0.03c0.31-0.46,0.56-0.89,0.86-1.28c1.54-2.08,3.06-4.18,4.67-6.21
		c0.55-0.7,0.63-1.3,0.34-2.12C61.15,57.56,60.18,54.65,59.09,51.42z M76.5,63.77c-2.95-1.22-3.76-3.32-3.22-6.31
		c-2.11,2.33-4.38,2.59-7.11,1.06c1.64,2.71,1.25,4.96-1.04,7.08c3.12-0.74,5.06,0.51,6.36,3.27C71.8,65.78,73.38,64.15,76.5,63.77z
		"/>
	<path class="st0" d="M89.7,56.74c3.15,1.06,6.02,1.98,8.85,3c0.93,0.33,1.6,0.27,2.4-0.36c2.34-1.84,4.76-3.57,7.32-5.48
		c0.06,0.51,0.14,0.86,0.14,1.21c-0.01,2.69,0.02,5.38-0.08,8.07c-0.04,1.01,0.33,1.59,1.13,2.13c2.49,1.7,4.93,3.47,7.62,5.38
		c-3.21,1-6.11,1.94-9.04,2.79c-0.91,0.26-1.35,0.72-1.61,1.62c-0.86,2.94-1.8,5.85-2.79,9.01c-1.88-2.66-3.63-5.07-5.29-7.53
		c-0.61-0.9-1.24-1.28-2.38-1.24c-2.96,0.11-5.93,0.04-9.15,0.04c1.65-2.21,3.11-4.38,4.8-6.37c1.24-1.46,1.53-2.75,0.73-4.58
		C91.29,62.04,90.62,59.49,89.7,56.74z M102.1,74.14c0.22-3.17,1.97-4.65,5.04-5.08c-3.11-1.16-3.71-3.43-3.34-6.42
		c-2.02,2.67-4.36,2.52-7.04,1.27c1.73,2.69,1.09,4.9-1.05,7.1C98.98,69.99,100.71,71.54,102.1,74.14z"/>
	<path class="st0" d="M137.55,68.86c-0.86,0.86-1.81,1.82-2.71,2.72c-0.97-1.01-1.93-2-2.85-2.96c0.84-0.8,1.84-1.76,2.93-2.8
		C135.67,66.69,136.58,67.74,137.55,68.86z"/>
	<path class="st0" d="M21.97,85.26c0.9,0.93,1.84,1.91,2.74,2.84c-0.88,0.88-1.89,1.88-2.85,2.85c-0.91-0.87-1.91-1.83-2.87-2.74
		C20,87.2,20.96,86.26,21.97,85.26z"/>
	<path class="st0" d="M18.66,94.3c-1.05,1.08-2,2.05-3.02,3.09c-0.94-1.03-1.87-2.07-2.82-3.11c0.89-0.9,1.88-1.89,2.91-2.93
		C16.71,92.35,17.7,93.34,18.66,94.3z"/>
</g>
</svg>
