<?xml version="1.0" encoding="utf-8"?>
<!-- Generator: Adobe Illustrator 26.5.0, SVG Export Plug-In . SVG Version: 6.00 Build 0)  -->
<svg version="1.1" id="Calque_1" xmlns="http://www.w3.org/2000/svg" xmlns:xlink="http://www.w3.org/1999/xlink" x="0px" y="0px"
	 viewBox="0 0 512 512" style="enable-background:new 0 0 512 512;" xml:space="preserve">
<g>
	<path d="M239.95,0c10.67,0,21.33,0,32,0c1.28,0.28,2.55,0.72,3.85,0.82c39.86,2.98,77.17,14.42,111.17,35.35
		c66.08,40.68,106.78,99.2,121.04,175.71c1.73,9.29,2.64,18.74,3.93,28.11c0,10.67,0,21.33,0,32c-0.74,6.09-1.36,12.21-2.25,18.28
		c-10.11,68.74-42.12,125.13-96.93,167.77c-56.23,43.75-120.46,60.73-190.98,51.54c-60.31-7.86-111.7-34.49-152.91-79.25
		C14.42,371.18-7.56,301.03,2.39,221.4c6.38-51.1,27.42-96.11,61.64-134.62c39.77-44.74,89.19-72.62,148.3-82.92
		C221.48,2.27,230.74,1.27,239.95,0z M262.64,110.09c0,2.6,0,4.74,0,6.88c-0.03,63.31-0.05,126.63-0.09,189.94
		c0,2.83-0.06,5.67-0.32,8.48c-2.06,22.21-20.18,39.12-42.28,39.5c-22,0.38-40.84-15.99-43.78-38.02
		c-2.87-21.55,11.6-42.52,33.52-47.01c7.28-1.49,15.12-0.24,22.83-0.24c0-15.5,0-31.4,0-48.73c-10.51,0.67-20.74,0.4-30.61,2.12
		c-49.94,8.69-83.31,58.36-72.47,107.18c11.25,50.67,62.12,82.13,111.9,69.21c41.94-10.89,69.34-46.22,69.32-89.61
		c-0.02-32.66-0.22-65.31-0.34-97.97c-0.01-1.77,0-3.54,0-6.34c22.52,16.26,46.52,25,73.58,24.85c0-16.04,0-31.57,0-47.09
		c-35.39-0.68-72.05-27.42-74.18-73.15C294.29,110.09,278.85,110.09,262.64,110.09z"/>
</g>
</svg>
