<?xml version="1.0" encoding="utf-8"?>
<!-- Generator: Adobe Illustrator 26.5.0, SVG Export Plug-In . SVG Version: 6.00 Build 0)  -->
<svg version="1.1" id="Calque_1" xmlns="http://www.w3.org/2000/svg" xmlns:xlink="http://www.w3.org/1999/xlink" x="0px" y="0px"
	 viewBox="0 0 512 512" style="enable-background:new 0 0 512 512;" xml:space="preserve">
<g>
	<path d="M0.02,272.04c0-10.66,0-21.33,0-31.99c0.3-1.62,0.66-3.23,0.9-4.85c1.56-10.69,2.43-21.54,4.73-32.07
		c14.7-67.16,50.6-120.46,107.32-159.03C168.86,6.09,230.91-7.03,297.59,3.51c48.19,7.62,90.85,27.93,127.23,60.46
		c55.48,49.6,84.8,111.85,87.04,186.28c1.46,48.58-10.32,94.18-35.59,135.76c-40.53,66.68-99.31,107.59-176.16,122.07
		c-9.28,1.75-18.72,2.64-28.09,3.92c-10.67,0-21.33,0-32,0c-6.25-0.77-12.5-1.44-18.73-2.33c-50.94-7.3-95.96-27.7-134.44-61.87
		C42.4,408.31,14.64,359.22,4.01,300.64C2.3,291.18,1.33,281.58,0.02,272.04z M368.06,176.55c-0.21-0.41-0.41-0.82-0.62-1.22
		c11.13-7.66,19.32-17.51,23.51-29.78c-10.9,3.85-21.78,7.66-32.64,11.54c-2.84,1.01-4.77,0.19-7-1.88
		c-33.17-30.66-86.94-14.48-97.1,29.46c-1.97,8.53-1.41,17.64-2.04,26.95c-47.92-3.39-87.83-23.97-119.71-61.23
		c-5.93,9.86-8.32,20.27-7.92,31.26c0.72,19.31,9.38,34.61,24.72,46.37c-0.25,0.47-0.49,0.94-0.74,1.42
		c-8.1-2.26-16.21-4.52-24.26-6.76c-1.34,24.34,13.36,43.29,44.53,58.28c-7.87,0-15.75,0-24.32,0
		c9.95,25.39,27.96,38.42,54.72,41.28c-25.71,19.28-53.75,26.86-85.97,24.28c1.84,1.27,2.35,1.68,2.91,2
		c52.28,29.97,106.77,33.81,160.61,7.34c61.82-30.39,91.04-83.27,93.37-151.41c0.18-5.29,1.68-8.38,5.71-11.48
		c8.83-6.78,16.28-14.95,22.71-24.61C387.97,171.2,378.01,173.87,368.06,176.55z"/>
</g>
</svg>
