<?xml version="1.0" encoding="utf-8"?>
<!-- Generator: Adobe Illustrator 25.2.3, SVG Export Plug-In . SVG Version: 6.00 Build 0)  -->
<svg version="1.1" id="Calque_1" xmlns="http://www.w3.org/2000/svg" xmlns:xlink="http://www.w3.org/1999/xlink" x="0px" y="0px"
	 viewBox="0 0 150 150" style="enable-background:new 0 0 150 150;" xml:space="preserve">
<style type="text/css">
	.st0{fill:#FFFFFF;}
</style>
<g>
	<path class="st0" d="M129.14-0.11c2.54,0.8,5.24,1.26,7.58,2.45c8.25,4.18,12.91,11.04,13.12,20.32c0.28,12.8,0.1,25.62,0.07,38.43
		c-0.01,3.46-2.61,6.02-5.9,5.98c-3.29-0.04-5.78-2.6-5.78-6.11c-0.03-12.32,0-24.64-0.02-36.97c-0.01-5.95-3.22-10.37-8.72-11.9
		c-1.2-0.34-2.5-0.45-3.76-0.45C91.87,11.62,58,11.62,24.13,11.63c-7.41,0-12.41,5.01-12.41,12.43c-0.01,22.05-0.02,44.1,0,66.16
		c0.01,7.34,5.01,12.36,12.33,12.36c33.97,0.02,67.93,0.02,101.9,0c6.96,0,11.75-4.56,12.26-11.54c0.28-3.75,2.79-6.21,6.16-6.04
		c3.39,0.17,5.65,2.88,5.54,6.63c-0.36,12.19-10.33,22.24-22.51,22.67c-0.39,0.01-0.78,0.03-1.17,0.03
		c-34.16,0-68.32,0.02-102.48-0.01c-10.39-0.01-19.08-6.19-22.46-15.9c-0.56-1.6-0.86-3.28-1.28-4.92c0-24.26,0-48.51,0-72.77
		c0.09-0.22,0.23-0.43,0.26-0.65C1.59,11.82,6.01,5.8,13.5,2.2c2.28-1.09,4.86-1.56,7.3-2.31C56.91-0.11,93.02-0.11,129.14-0.11z"/>
	<path class="st0" d="M0,136.91c1.19-3.5,3.67-4.8,7.3-4.73c7.02,0.13,14.03,0.06,21.05,0c0.61,0,1.42-0.37,1.78-0.84
		c3.37-4.28,8.66-5.79,13.76-3.83c4.49,1.73,7.67,6.69,7.32,11.44c-0.41,5.51-4.09,9.78-9.39,10.91c-0.28,0.06-0.55,0.17-0.82,0.26
		c-1.07,0-2.15,0-3.22,0c-0.31-0.11-0.62-0.24-0.94-0.32c-2.9-0.75-5.27-2.29-6.92-4.8c-0.53-0.8-1.07-1.06-2-1.06
		c-6.87,0.04-13.75-0.07-20.62,0.06c-3.63,0.07-6.11-1.23-7.3-4.73C0,138.47,0,137.69,0,136.91z"/>
	<path class="st0" d="M54.76,57.12c0-4.69-0.01-9.39,0-14.08c0.04-9.69,9.29-15.03,17.69-10.2c8.07,4.65,16.12,9.33,24.15,14.04
		c8.28,4.87,8.31,15.53,0.04,20.39c-8.07,4.75-16.16,9.45-24.28,14.12c-8.31,4.78-17.55-0.6-17.6-10.2
		C54.74,66.51,54.76,61.82,54.76,57.12z M90.83,57.1c-8.24-4.79-16.22-9.43-24.29-14.12c0,9.5,0,18.76,0,28.24
		C74.64,66.52,82.59,61.9,90.83,57.1z"/>
	<path class="st0" d="M106.52,132.21c12.35,0,24.69,0.01,37.04,0c2.69,0,4.75,1.05,5.87,3.56c1.61,3.61-0.81,7.7-4.77,8.14
		c-0.44,0.05-0.88,0.04-1.32,0.04c-24.6,0-49.19,0-73.79,0c-3.16,0-5.36-1.38-6.24-3.89c-1.34-3.79,1.33-7.7,5.43-7.83
		c2.73-0.08,5.47-0.02,8.2-0.02C86.8,132.21,96.66,132.21,106.52,132.21z"/>
</g>
</svg>
