<?xml version="1.0" encoding="utf-8"?>
<!-- Generator: Adobe Illustrator 26.5.0, SVG Export Plug-In . SVG Version: 6.00 Build 0)  -->
<svg version="1.1" id="Calque_1" xmlns="http://www.w3.org/2000/svg" xmlns:xlink="http://www.w3.org/1999/xlink" x="0px" y="0px"
	 viewBox="0 0 512 512" style="enable-background:new 0 0 512 512;" xml:space="preserve">
<g>
	<path d="M511.87,239.97c0,10.67,0,21.34,0,32c-0.41,3.28-0.87,6.56-1.22,9.85c-5.48,50.64-23.83,96.07-56.14,135.46
		c-40.19,48.98-91.6,79.4-154.04,90.76c-9.46,1.72-19.05,2.66-28.58,3.97c-10.67,0-21.33,0-32,0c-3.28-0.41-6.55-0.86-9.83-1.22
		c-53.68-5.93-101.54-25.74-141.91-61.75C22.81,390.75-6.3,317.36,1.32,230.24C6.08,175.69,27.5,127.53,64.05,86.71
		c49.92-55.75,112.67-84.8,187.53-86.63c48.62-1.19,94.21,10.74,135.63,36.24c65.94,40.6,106.51,99.14,120.72,175.52
		C509.67,221.14,510.58,230.59,511.87,239.97z M256.59,367.95c3.67,0,7.34,0.15,11-0.02c35.09-1.63,70.22-2.76,105.26-5.19
		c20.35-1.41,33.7-13.7,37.1-33.86c2.93-17.35,4.38-35.02,5.31-52.61c1.6-30.17,0.64-60.32-4.44-90.18
		c-3.76-22.06-16.76-34.49-39.05-36.98c-15.22-1.7-30.52-2.94-45.81-3.57c-60.14-2.48-120.26-2.57-180.29,2.56
		c-28.45,2.43-41.65,14.92-45.58,43.06c-3.86,27.62-5.21,55.45-3.68,83.28c1.03,18.75,2.69,37.57,5.82,56.07
		c2.87,17,14.37,27.34,31.22,31.2c5.01,1.15,10.18,1.95,15.31,2.21C184.67,365.74,256.57,368.33,256.59,367.95z"/>
	<path d="M307.31,255.97c-28.16,16.22-55.24,31.82-82.93,47.77c0-31.99,0-63.33,0-95.52C251.89,224.06,279.17,239.77,307.31,255.97z
		"/>
</g>
</svg>
